<svg xmlns="http://www.w3.org/2000/svg" viewBox="0 0 64 64" fill="none">
  <path d="M6 30.5C6 19.2 14.1 12 25.4 12h13.2C49.9 12 58 19.2 58 30.5v12.2c0 8.8-5 13.8-10.1 13.8-4.5 0-7.5-3.4-9.4-8.5h-13c-1.9 5.1-4.9 8.5-9.4 8.5C11 56.5 6 51.5 6 42.7V30.5Z" fill="#f7f3e7" stroke="__FG__" stroke-width="2.8" stroke-linejoin="round"/>
  <path d="M14 22.5c5-4 11-5.8 18-5.8s13 1.8 18 5.8" stroke="#d8d2c3" stroke-width="2.2" stroke-linecap="round"/>
  <path d="M21.5 22.2c3.4 2.9 6.8 4.3 10.5 4.3s7.1-1.4 10.5-4.3" stroke="#c8c1b3" stroke-width="1.8" stroke-linecap="round"/>

  <rect x="24.3" y="12.7" width="15.4" height="16" rx="3.4" fill="#e7e2d5" stroke="__FG__" stroke-width="2.1"/>
  <rect x="27.6" y="16.2" width="8.8" height="8.8" rx="1.6" fill="#d8eef2" stroke="__FG__" stroke-width="1.4"/>

  <circle cx="16.7" cy="24.7" r="6.5" fill="#ddd9cf" stroke="__FG__" stroke-width="2.2"/>
  <circle cx="16.7" cy="24.7" r="3.8" fill="#cfd1ca"/>
  <path d="M16.7 20.4v8.6M12.4 24.7H21" stroke="#f8f6ee" stroke-width="1.4" stroke-linecap="round" opacity=".7"/>

  <path d="M17.2 36.6h5v5h-5v5h-5v-5h-5v-5h5v-5h5v5Z" fill="#e6e6df" stroke="__FG__" stroke-width="2.2" stroke-linejoin="round"/>
  <circle cx="14.7" cy="39.1" r="1.3" fill="#c6c2b8"/>

  <path d="M31.9 45.2 35.6 51H28.2l3.7-5.8Z" fill="#e6e6df" stroke="__FG__" stroke-width="2.1" stroke-linejoin="round"/>

  <circle cx="49.1" cy="25.6" r="3.5" fill="#55b878" stroke="__FG__" stroke-width="1.4"/>
  <circle cx="44" cy="32.7" r="3.5" fill="#f1d64f" stroke="__FG__" stroke-width="1.4"/>
  <circle cx="52.3" cy="36.5" r="3.5" fill="#5aa2df" stroke="__FG__" stroke-width="1.4"/>
  <circle cx="47.4" cy="43.3" r="3.5" fill="#e65f5d" stroke="__FG__" stroke-width="1.4"/>
  <path d="M49.1 23.9v3.4M47.4 25.6h3.4" stroke="#167345" stroke-width="1.1" stroke-linecap="round"/>
  <path d="M42.7 31.4l2.6 2.6M45.3 31.4 42.7 34" stroke="#8a7610" stroke-width="1.1" stroke-linecap="round"/>
  <path d="M50.9 35.2h2.8M50.9 37.8h2.8" stroke="#1e5f93" stroke-width="1.1" stroke-linecap="round"/>
  <path d="M47.4 41.8v3" stroke="#8c2d2c" stroke-width="1.1" stroke-linecap="round"/>

  <path d="M9.5 45.2c1.2 5.8 4 8 6.7 8 2.9 0 5.1-2.7 6.6-7.2M54.5 45.2c-1.2 5.8-4 8-6.7 8-2.9 0-5.1-2.7-6.6-7.2" stroke="#d8d2c3" stroke-width="2" stroke-linecap="round"/>
</svg>
